<!-- linkive  아이콘 svg 파일입니다 -->
<svg version="1.1" id="Layer_1" xmlns="http://www.w3.org/2000/svg" xmlns:xlink="http://www.w3.org/1999/xlink" x="0px" y="0px"
	 width="50" height="50" viewBox="0 0 160 160" enable-background="new 0 0 160 160" xml:space="preserve">
<path fill="#D6D6EA" opacity="1.000000" stroke="none" 
	d="
M121.000000,161.000000 
	C117.638710,161.000000 114.277428,161.000000 110.620773,160.613068 
	C110.537941,148.164337 110.839790,136.102249 110.800949,124.041275 
	C110.797691,123.028114 108.518547,121.165726 107.275444,121.147461 
	C96.503662,120.989136 85.726997,121.162880 74.489502,121.179581 
	C64.814674,121.121407 55.602131,121.121407 45.849438,121.121407 
	C45.849438,107.502022 45.849438,94.763855 45.796818,81.662331 
	C45.829342,79.700867 45.987576,78.102814 45.988655,76.504654 
	C46.004581,52.919182 46.018845,29.333645 45.956699,5.748326 
	C45.952526,4.164721 45.333210,2.582738 45.000000,1.000000 
	C70.020897,1.000000 95.041786,1.000000 120.220001,1.269325 
	C121.223793,2.085623 122.070274,2.632595 122.662376,3.462229 
	C121.947334,4.562383 121.092842,5.376439 121.085670,6.197885 
	C120.993050,16.816053 120.912628,27.438139 121.193130,38.049610 
	C121.219978,39.065056 123.666008,40.830147 125.025314,40.865913 
	C134.476471,41.114590 143.939209,41.098194 153.393204,40.911613 
	C155.214600,40.875664 157.013779,39.713673 159.011963,39.412956 
	C159.800476,39.836514 160.400238,39.918259 161.000000,40.000000 
	C161.000000,43.692909 161.000000,47.385818 160.614777,51.374657 
	C147.949142,51.463989 135.668625,51.190929 123.388451,51.204453 
	C122.593208,51.205330 121.124046,53.405518 121.111992,54.594238 
	C121.002319,65.411385 121.146858,76.231110 121.165070,87.512886 
	C121.075371,112.317131 121.037689,136.658569 121.000000,161.000000 
M61.996124,8.758609 
	C61.723961,2.061930 56.613350,5.869351 53.721512,5.095107 
	C51.029057,4.374245 49.920845,5.983044 49.964115,8.769018 
	C50.080536,16.265139 49.926506,23.765875 50.083096,31.260530 
	C50.108116,32.457893 51.181938,33.633347 51.770897,34.818928 
	C52.512783,33.619457 53.851746,32.441509 53.895885,31.216890 
	C54.117821,25.059837 53.908573,18.887943 54.084438,12.727933 
	C54.118626,11.530419 55.189960,10.362517 55.782898,9.180958 
	C56.520870,10.384403 57.852562,11.566528 57.896671,12.794890 
	C58.117779,18.952000 57.908489,25.123892 58.085224,31.283852 
	C58.119473,32.477581 59.198051,33.641346 59.794903,34.818932 
	C60.528896,33.611462 61.863258,32.420990 61.897995,31.193726 
	C62.100632,24.034748 61.998528,16.867147 61.996124,8.758609 
M90.016273,27.687614 
	C90.675049,21.133867 91.418121,14.586232 91.894287,8.019243 
	C91.959557,7.118999 90.696732,6.122455 90.048790,5.170499 
	C89.373192,6.090068 88.403191,6.921112 88.093590,7.950733 
	C87.668854,9.363239 87.744911,10.926327 87.606369,12.424887 
	C84.402046,5.286002 84.402046,5.286002 81.262405,5.995418 
	C82.180458,14.651420 83.007851,23.328901 84.132500,31.967682 
	C84.276039,33.070244 85.961037,34.739132 86.948425,34.750813 
	C87.951645,34.762680 89.272278,33.206284 89.894386,32.038578 
	C90.377312,31.132143 89.999435,29.767109 90.016273,27.687614 
M102.604485,21.171453 
	C102.000290,20.094711 101.635094,18.725782 100.745415,17.998072 
	C98.425331,16.100355 98.243523,10.912057 100.549568,9.081633 
	C101.429802,8.382957 102.060608,7.370038 102.805077,6.500324 
	C101.544464,6.002057 100.246651,5.034420 99.033150,5.130594 
	C97.677086,5.238067 95.276299,6.276128 95.254967,6.968473 
	C94.989601,15.584906 94.994888,24.214136 95.211121,32.833042 
	C95.229790,33.577091 97.204987,34.782822 98.333725,34.859833 
	C99.766319,34.957581 101.262695,34.120438 102.731567,33.686424 
	C101.920395,32.716545 101.225082,31.610397 100.275627,30.803158 
	C97.754433,28.659582 98.737999,23.297468 102.604485,21.171453 
M67.435043,5.173789 
	C66.624924,6.299592 65.188507,7.386543 65.115829,8.558093 
	C64.838486,13.028960 64.999748,17.527082 64.998650,22.015026 
	C64.997612,26.225811 64.998428,30.436594 64.998428,34.950817 
	C68.211319,34.663391 70.411110,34.466595 73.603935,34.180962 
	C72.504471,32.006599 71.651611,30.319935 70.991302,29.014069 
	C71.625610,27.771189 72.893990,26.408789 72.641777,25.443830 
	C72.418495,24.589548 70.503265,24.177496 69.383766,23.595568 
	C69.005806,17.613075 68.622360,11.543691 67.435043,5.173789 
M79.000000,27.393677 
	C78.999863,23.227112 79.192459,19.047081 78.902794,14.900741 
	C78.790154,13.288372 77.589478,11.752013 76.884407,10.181028 
	C76.256378,11.829145 75.186920,13.450881 75.086548,15.130533 
	C74.828506,19.448345 74.766426,23.809662 75.095154,28.117798 
	C75.268539,30.390129 76.423141,32.587585 77.134712,34.818851 
	C77.756470,32.664574 78.378235,30.510294 79.000000,27.393677 
z"/>
<path fill="#6368E3" opacity="1.000000" stroke="none" 
	d="
M45.849438,82.025688 
	C45.849438,94.763855 45.849438,107.502022 45.849438,121.121407 
	C55.602131,121.121407 64.814674,121.121407 74.586418,121.490730 
	C79.572250,125.457382 81.914284,130.028290 80.920227,135.765442 
	C79.042831,146.600815 73.561493,154.756531 62.958500,158.881912 
	C61.284386,159.533234 59.651794,160.291290 58.000000,161.000000 
	C42.979103,161.000000 27.958210,161.000000 12.775064,160.723404 
	C9.515870,157.545486 6.431735,154.630280 3.312241,151.753403 
	C2.604455,151.100662 1.773998,150.580948 1.000001,150.000000 
	C1.000000,122.312439 1.000000,94.624878 1.258081,66.715065 
	C4.207904,75.634750 9.507007,82.812515 17.975805,87.276283 
	C27.855654,92.483810 39.907925,93.980522 45.849438,82.025688 
z"/>
<path fill="#5054B9" opacity="1.000000" stroke="none" 
	d="
M45.796818,81.662331 
	C39.907925,93.980522 27.855654,92.483810 17.975805,87.276283 
	C9.507007,82.812515 4.207904,75.634750 1.258081,66.246407 
	C1.000000,48.312439 1.000000,30.624876 1.321892,12.694984 
	C3.873157,10.018662 6.110753,7.592132 8.328678,5.147754 
	C9.569304,3.780460 10.777301,2.383560 12.000000,1.000000 
	C22.687561,1.000000 33.375122,1.000000 44.531342,1.000000 
	C45.333210,2.582738 45.952526,4.164721 45.956699,5.748326 
	C46.018845,29.333645 46.004581,52.919182 45.988655,76.504654 
	C45.987576,78.102814 45.829342,79.700867 45.796818,81.662331 
z"/>
<path fill="#7A7EE4" opacity="1.000000" stroke="none" 
	d="
M121.468658,161.000000 
	C121.037689,136.658569 121.075371,112.317131 121.475525,87.415466 
	C125.576447,82.230400 130.390656,79.997437 136.280640,81.130379 
	C146.895126,83.172073 154.915512,88.651314 158.923553,99.127029 
	C159.442810,100.484169 160.299576,101.712181 161.000000,103.000000 
	C161.000000,118.354225 161.000000,133.708450 160.723907,149.223419 
	C157.243774,152.606049 154.017075,155.806061 150.860733,159.074036 
	C150.401474,159.549545 150.278564,160.349945 150.000000,161.000000 
	C140.645767,161.000000 131.291550,161.000000 121.468658,161.000000 
z"/>
<path fill="#8897E5" opacity="1.000000" stroke="none" 
	d="
M161.000000,102.531342 
	C160.299576,101.712181 159.442810,100.484169 158.923553,99.127029 
	C154.915512,88.651314 146.895126,83.172073 136.280640,81.130379 
	C130.390656,79.997437 125.576447,82.230400 121.527527,86.952667 
	C121.146858,76.231110 121.002319,65.411385 121.111992,54.594238 
	C121.124046,53.405518 122.593208,51.205330 123.388451,51.204453 
	C135.668625,51.190929 147.949142,51.463989 160.614777,51.835297 
	C161.000000,68.687561 161.000000,85.375122 161.000000,102.531342 
z"/>
<path fill="#7A7EE4" opacity="1.000000" stroke="none" 
	d="
M58.468658,161.000000 
	C59.651794,160.291290 61.284386,159.533234 62.958500,158.881912 
	C73.561493,154.756531 79.042831,146.600815 80.920227,135.765442 
	C81.914284,130.028290 79.572250,125.457382 75.048706,121.548904 
	C85.726997,121.162880 96.503662,120.989136 107.275444,121.147461 
	C108.518547,121.165726 110.797691,123.028114 110.800949,124.041275 
	C110.839790,136.102249 110.537941,148.164337 110.162704,160.613068 
	C92.979103,161.000000 75.958214,161.000000 58.468658,161.000000 
z"/>
<path fill="#000000" opacity="1.000000" stroke="none" 
	d="
M122.916756,3.179566 
	C122.070274,2.632595 121.223793,2.085623 120.688660,1.269325 
	C134.259064,1.000000 147.518112,1.000000 161.000000,1.000000 
	C161.000000,13.686692 161.000000,26.374687 161.000000,39.531342 
	C160.400238,39.918259 159.800476,39.836514 159.009476,39.074097 
	C151.947220,31.497261 145.126541,24.549932 138.188293,17.722086 
	C133.178757,12.792277 128.012894,8.021353 122.916756,3.179566 
z"/>
<path fill="#000000" opacity="1.000000" stroke="none" 
	d="
M150.482956,161.000000 
	C150.278564,160.349945 150.401474,159.549545 150.860733,159.074036 
	C154.017075,155.806061 157.243774,152.606049 160.723907,149.692078 
	C161.000000,153.587204 161.000000,157.174423 161.000000,161.000000 
	C157.657455,161.000000 154.311676,161.000000 150.482956,161.000000 
z"/>
<path fill="#000000" opacity="1.000000" stroke="none" 
	d="
M1.000001,150.482956 
	C1.773998,150.580948 2.604455,151.100662 3.312241,151.753403 
	C6.431735,154.630280 9.515870,157.545486 12.306406,160.723404 
	C8.412791,161.000000 4.825583,161.000000 1.000000,161.000000 
	C1.000000,157.657455 1.000000,154.311676 1.000001,150.482956 
z"/>
<path fill="#000000" opacity="1.000000" stroke="none" 
	d="
M11.517044,1.000000 
	C10.777301,2.383560 9.569304,3.780460 8.328678,5.147754 
	C6.110753,7.592132 3.873157,10.018662 1.321892,12.226327 
	C1.000000,8.412791 1.000000,4.825583 1.000000,1.000000 
	C4.342551,1.000000 7.688319,1.000000 11.517044,1.000000 
z"/>
<path fill="#8897E5" opacity="1.000000" stroke="none" 
	d="
M122.662376,3.462228 
	C128.012894,8.021353 133.178757,12.792277 138.188293,17.722086 
	C145.126541,24.549932 151.947220,31.497261 158.820709,38.732285 
	C157.013779,39.713673 155.214600,40.875664 153.393204,40.911613 
	C143.939209,41.098194 134.476471,41.114590 125.025314,40.865913 
	C123.666008,40.830147 121.219978,39.065056 121.193130,38.049610 
	C120.912628,27.438139 120.993050,16.816053 121.085670,6.197885 
	C121.092842,5.376439 121.947334,4.562383 122.662376,3.462228 
z"/>
<path fill="#9A9DE5" opacity="1.000000" stroke="none" 
	d="
M61.997734,9.230534 
	C61.998528,16.867147 62.100632,24.034748 61.897995,31.193726 
	C61.863258,32.420990 60.528896,33.611462 59.794903,34.818932 
	C59.198051,33.641346 58.119473,32.477581 58.085224,31.283852 
	C57.908489,25.123892 58.117779,18.952000 57.896671,12.794890 
	C57.852562,11.566528 56.520870,10.384403 55.782898,9.180958 
	C55.189960,10.362517 54.118626,11.530419 54.084438,12.727933 
	C53.908573,18.887943 54.117821,25.059837 53.895885,31.216890 
	C53.851746,32.441509 52.512783,33.619457 51.770897,34.818928 
	C51.181938,33.633347 50.108116,32.457893 50.083096,31.260530 
	C49.926506,23.765875 50.080536,16.265139 49.964115,8.769018 
	C49.920845,5.983044 51.029057,4.374245 53.721512,5.095107 
	C56.613350,5.869351 61.723961,2.061930 61.997734,9.230534 
z"/>
<path fill="#9A9DE5" opacity="1.000000" stroke="none" 
	d="
M90.010223,28.146767 
	C89.999435,29.767109 90.377312,31.132143 89.894386,32.038578 
	C89.272278,33.206284 87.951645,34.762680 86.948425,34.750813 
	C85.961037,34.739132 84.276039,33.070244 84.132500,31.967682 
	C83.007851,23.328901 82.180458,14.651420 81.262405,5.995418 
	C84.402046,5.286002 84.402046,5.286002 87.606369,12.424887 
	C87.744911,10.926327 87.668854,9.363239 88.093590,7.950733 
	C88.403191,6.921112 89.373192,6.090068 90.048790,5.170498 
	C90.696732,6.122455 91.959557,7.118999 91.894287,8.019243 
	C91.418121,14.586232 90.675049,21.133867 90.010223,28.146767 
z"/>
<path fill="#9A9DE5" opacity="1.000000" stroke="none" 
	d="
M102.312210,21.436892 
	C98.737999,23.297468 97.754433,28.659582 100.275627,30.803158 
	C101.225082,31.610397 101.920395,32.716545 102.731567,33.686424 
	C101.262695,34.120438 99.766319,34.957581 98.333725,34.859833 
	C97.204987,34.782822 95.229790,33.577091 95.211121,32.833042 
	C94.994888,24.214136 94.989601,15.584906 95.254967,6.968473 
	C95.276299,6.276128 97.677086,5.238067 99.033150,5.130594 
	C100.246651,5.034420 101.544464,6.002057 102.805077,6.500325 
	C102.060608,7.370038 101.429802,8.382957 100.549568,9.081633 
	C98.243523,10.912057 98.425331,16.100355 100.745415,17.998072 
	C101.635094,18.725782 102.000290,20.094711 102.312210,21.436892 
z"/>
<path fill="#9B9DE5" opacity="1.000000" stroke="none" 
	d="
M67.836975,5.324047 
	C68.622360,11.543691 69.005806,17.613075 69.383766,23.595568 
	C70.503265,24.177496 72.418495,24.589548 72.641777,25.443830 
	C72.893990,26.408789 71.625610,27.771189 70.991302,29.014069 
	C71.651611,30.319935 72.504471,32.006599 73.603935,34.180962 
	C70.411110,34.466595 68.211319,34.663391 64.998428,34.950817 
	C64.998428,30.436594 64.997612,26.225811 64.998650,22.015026 
	C64.999748,17.527082 64.838486,13.028960 65.115829,8.558093 
	C65.188507,7.386543 66.624924,6.299592 67.836975,5.324047 
z"/>
<path fill="#9A9DE5" opacity="1.000000" stroke="none" 
	d="
M79.000000,27.874847 
	C78.378235,30.510294 77.756470,32.664574 77.134712,34.818851 
	C76.423141,32.587585 75.268539,30.390129 75.095154,28.117798 
	C74.766426,23.809662 74.828506,19.448345 75.086548,15.130533 
	C75.186920,13.450881 76.256378,11.829145 76.884415,10.181028 
	C77.589478,11.752013 78.790154,13.288372 78.902794,14.900741 
	C79.192459,19.047081 78.999863,23.227112 79.000000,27.874847 
z"/>
</svg>